<mxfile host="app.diagrams.net" modified="2023-01-05T07:41:21.920Z" agent="5.0 (Windows NT 10.0; Win64; x64) AppleWebKit/537.36 (KHTML, like Gecko) Chrome/108.0.0.0 Safari/537.36" etag="xgkkOtJNZjUXU5RXxcVz" version="20.7.4" type="github">
  <diagram name="Page-1" id="90a13364-a465-7bf4-72fc-28e22215d7a0">
    <mxGraphModel dx="1131" dy="967" grid="1" gridSize="10" guides="1" tooltips="1" connect="1" arrows="1" fold="1" page="1" pageScale="1.5" pageWidth="1169" pageHeight="826" background="none" math="0" shadow="0">
      <root>
        <mxCell id="0" style=";html=1;" />
        <mxCell id="1" style=";html=1;" parent="0" />
        <mxCell id="rF9bdgkSoaWU4o85ROfL-97" value="External Clock" style="rounded=0;whiteSpace=wrap;html=1;fontSize=14;fillColor=#f5f5f5;fontColor=#333333;strokeColor=#666666;align=left;verticalAlign=top;" vertex="1" parent="1">
          <mxGeometry x="220" y="200" width="350" height="200" as="geometry" />
        </mxCell>
        <mxCell id="rF9bdgkSoaWU4o85ROfL-89" value="" style="whiteSpace=wrap;html=1;shadow=1;fontSize=18;fillColor=#d0cee2;strokeColor=#56517e;" vertex="1" parent="1">
          <mxGeometry x="588.5" y="200" width="101.5" height="310" as="geometry" />
        </mxCell>
        <mxCell id="rF9bdgkSoaWU4o85ROfL-8" style="edgeStyle=orthogonalEdgeStyle;rounded=0;orthogonalLoop=1;jettySize=auto;html=1;exitX=1;exitY=0.25;exitDx=0;exitDy=0;entryX=0;entryY=0.5;entryDx=0;entryDy=0;fontSize=14;" edge="1" parent="1">
          <mxGeometry relative="1" as="geometry">
            <mxPoint x="430" y="279" as="sourcePoint" />
            <mxPoint x="450" y="234" as="targetPoint" />
            <Array as="points">
              <mxPoint x="440" y="279" />
              <mxPoint x="440" y="234" />
            </Array>
          </mxGeometry>
        </mxCell>
        <mxCell id="rF9bdgkSoaWU4o85ROfL-9" style="edgeStyle=orthogonalEdgeStyle;rounded=0;orthogonalLoop=1;jettySize=auto;html=1;exitX=1;exitY=0.75;exitDx=0;exitDy=0;entryX=0;entryY=0.5;entryDx=0;entryDy=0;fontSize=14;" edge="1" parent="1">
          <mxGeometry relative="1" as="geometry">
            <mxPoint x="430" y="322" as="sourcePoint" />
            <mxPoint x="450" y="367" as="targetPoint" />
            <Array as="points">
              <mxPoint x="440" y="322" />
              <mxPoint x="440" y="367" />
            </Array>
          </mxGeometry>
        </mxCell>
        <mxCell id="rF9bdgkSoaWU4o85ROfL-33" style="edgeStyle=orthogonalEdgeStyle;rounded=0;orthogonalLoop=1;jettySize=auto;html=1;exitX=1;exitY=0.5;exitDx=0;exitDy=0;fontSize=14;endArrow=cross;endFill=0;" edge="1" parent="1">
          <mxGeometry relative="1" as="geometry">
            <mxPoint x="430" y="294" as="sourcePoint" />
            <mxPoint x="450" y="294" as="targetPoint" />
          </mxGeometry>
        </mxCell>
        <mxCell id="rF9bdgkSoaWU4o85ROfL-39" style="edgeStyle=orthogonalEdgeStyle;rounded=0;orthogonalLoop=1;jettySize=auto;html=1;exitX=1;exitY=0.75;exitDx=0;exitDy=0;fontSize=14;endArrow=cross;endFill=0;" edge="1" parent="1">
          <mxGeometry relative="1" as="geometry">
            <mxPoint x="410" y="308" as="sourcePoint" />
            <mxPoint x="450" y="308" as="targetPoint" />
          </mxGeometry>
        </mxCell>
        <mxCell id="rF9bdgkSoaWU4o85ROfL-2" value="Splitter" style="rounded=0;whiteSpace=wrap;html=1;fontSize=14;" vertex="1" parent="1">
          <mxGeometry x="350" y="270" width="80" height="60" as="geometry" />
        </mxCell>
        <mxCell id="rF9bdgkSoaWU4o85ROfL-5" style="edgeStyle=orthogonalEdgeStyle;rounded=0;orthogonalLoop=1;jettySize=auto;html=1;exitX=1;exitY=0.5;exitDx=0;exitDy=0;entryX=0;entryY=0.5;entryDx=0;entryDy=0;fontSize=14;" edge="1" parent="1" source="rF9bdgkSoaWU4o85ROfL-4" target="rF9bdgkSoaWU4o85ROfL-2">
          <mxGeometry relative="1" as="geometry" />
        </mxCell>
        <mxCell id="rF9bdgkSoaWU4o85ROfL-4" value="&lt;font style=&quot;font-size: 14px;&quot;&gt;&lt;span style=&quot;color: rgb(0, 0, 0); font-family: Helvetica; font-style: normal; font-variant-ligatures: normal; font-variant-caps: normal; font-weight: 400; letter-spacing: normal; orphans: 2; text-align: center; text-indent: 0px; text-transform: none; widows: 2; word-spacing: 0px; -webkit-text-stroke-width: 0px; background-color: rgb(251, 251, 251); text-decoration-thickness: initial; text-decoration-style: initial; text-decoration-color: initial; float: none; display: inline !important;&quot;&gt;Vector Signal Generator&lt;/span&gt;&lt;br&gt;&lt;/font&gt;" style="ellipse;whiteSpace=wrap;html=1;fillColor=#f5f5f5;fontColor=#333333;strokeColor=#666666;" vertex="1" parent="1">
          <mxGeometry x="230" y="260" width="100" height="80" as="geometry" />
        </mxCell>
        <mxCell id="rF9bdgkSoaWU4o85ROfL-26" style="edgeStyle=orthogonalEdgeStyle;rounded=0;orthogonalLoop=1;jettySize=auto;html=1;exitX=1;exitY=0.25;exitDx=0;exitDy=0;entryX=0;entryY=0.5;entryDx=0;entryDy=0;fontSize=14;" edge="1" parent="1">
          <mxGeometry relative="1" as="geometry">
            <mxPoint x="530" y="221" as="sourcePoint" />
            <mxPoint x="597" y="226" as="targetPoint" />
            <Array as="points">
              <mxPoint x="530" y="226" />
            </Array>
          </mxGeometry>
        </mxCell>
        <mxCell id="rF9bdgkSoaWU4o85ROfL-29" style="edgeStyle=orthogonalEdgeStyle;rounded=0;orthogonalLoop=1;jettySize=auto;html=1;exitX=1;exitY=0.75;exitDx=0;exitDy=0;fontSize=14;endArrow=cross;endFill=0;" edge="1" parent="1">
          <mxGeometry relative="1" as="geometry">
            <mxPoint x="530" y="253" as="sourcePoint" />
            <mxPoint x="550" y="253" as="targetPoint" />
          </mxGeometry>
        </mxCell>
        <mxCell id="rF9bdgkSoaWU4o85ROfL-31" style="edgeStyle=orthogonalEdgeStyle;rounded=0;orthogonalLoop=1;jettySize=auto;html=1;exitX=1;exitY=0.25;exitDx=0;exitDy=0;fontSize=14;endArrow=cross;endFill=0;" edge="1" parent="1">
          <mxGeometry relative="1" as="geometry">
            <mxPoint x="530" y="214" as="sourcePoint" />
            <mxPoint x="550" y="214" as="targetPoint" />
          </mxGeometry>
        </mxCell>
        <mxCell id="rF9bdgkSoaWU4o85ROfL-41" style="edgeStyle=orthogonalEdgeStyle;rounded=0;orthogonalLoop=1;jettySize=auto;html=1;exitX=1;exitY=0.5;exitDx=0;exitDy=0;entryX=0;entryY=0.5;entryDx=0;entryDy=0;fontSize=14;endArrow=classic;endFill=1;" edge="1" parent="1" source="rF9bdgkSoaWU4o85ROfL-6" target="rF9bdgkSoaWU4o85ROfL-11">
          <mxGeometry relative="1" as="geometry">
            <Array as="points">
              <mxPoint x="530" y="240" />
              <mxPoint x="564" y="240" />
              <mxPoint x="564" y="277" />
            </Array>
          </mxGeometry>
        </mxCell>
        <mxCell id="rF9bdgkSoaWU4o85ROfL-6" value="Splitter" style="rounded=0;whiteSpace=wrap;html=1;fontSize=14;" vertex="1" parent="1">
          <mxGeometry x="450" y="205" width="80" height="60" as="geometry" />
        </mxCell>
        <mxCell id="rF9bdgkSoaWU4o85ROfL-42" style="edgeStyle=orthogonalEdgeStyle;rounded=0;orthogonalLoop=1;jettySize=auto;html=1;exitX=1;exitY=0.25;exitDx=0;exitDy=0;entryX=0;entryY=0.5;entryDx=0;entryDy=0;fontSize=14;endArrow=classic;endFill=1;" edge="1" parent="1">
          <mxGeometry relative="1" as="geometry">
            <mxPoint x="530" y="345" as="sourcePoint" />
            <mxPoint x="597" y="323" as="targetPoint" />
            <Array as="points">
              <mxPoint x="560" y="345" />
              <mxPoint x="560" y="323" />
            </Array>
          </mxGeometry>
        </mxCell>
        <mxCell id="rF9bdgkSoaWU4o85ROfL-43" style="edgeStyle=orthogonalEdgeStyle;rounded=0;orthogonalLoop=1;jettySize=auto;html=1;exitX=1;exitY=0.5;exitDx=0;exitDy=0;entryX=0;entryY=0.5;entryDx=0;entryDy=0;fontSize=14;endArrow=classic;endFill=1;" edge="1" parent="1" target="rF9bdgkSoaWU4o85ROfL-13">
          <mxGeometry relative="1" as="geometry">
            <mxPoint x="530" y="360" as="sourcePoint" />
            <mxPoint x="597" y="373" as="targetPoint" />
            <Array as="points">
              <mxPoint x="560" y="360" />
              <mxPoint x="560" y="380" />
            </Array>
          </mxGeometry>
        </mxCell>
        <mxCell id="rF9bdgkSoaWU4o85ROfL-44" style="edgeStyle=orthogonalEdgeStyle;rounded=0;orthogonalLoop=1;jettySize=auto;html=1;exitX=1;exitY=0.75;exitDx=0;exitDy=0;entryX=0;entryY=0.5;entryDx=0;entryDy=0;fontSize=14;endArrow=classic;endFill=1;" edge="1" parent="1" target="rF9bdgkSoaWU4o85ROfL-14">
          <mxGeometry relative="1" as="geometry">
            <mxPoint x="530" y="373" as="sourcePoint" />
            <mxPoint x="597" y="425" as="targetPoint" />
            <Array as="points">
              <mxPoint x="550" y="373" />
              <mxPoint x="550" y="434" />
            </Array>
          </mxGeometry>
        </mxCell>
        <mxCell id="rF9bdgkSoaWU4o85ROfL-45" style="edgeStyle=orthogonalEdgeStyle;rounded=0;orthogonalLoop=1;jettySize=auto;html=1;exitX=1;exitY=1;exitDx=0;exitDy=0;entryX=0;entryY=0.5;entryDx=0;entryDy=0;fontSize=14;endArrow=classic;endFill=1;" edge="1" parent="1">
          <mxGeometry relative="1" as="geometry">
            <mxPoint x="530" y="386" as="sourcePoint" />
            <mxPoint x="597" y="482" as="targetPoint" />
            <Array as="points">
              <mxPoint x="540" y="386" />
              <mxPoint x="540" y="482" />
            </Array>
          </mxGeometry>
        </mxCell>
        <mxCell id="rF9bdgkSoaWU4o85ROfL-7" value="Splitter" style="rounded=0;whiteSpace=wrap;html=1;fontSize=14;" vertex="1" parent="1">
          <mxGeometry x="450" y="337" width="80" height="60" as="geometry" />
        </mxCell>
        <mxCell id="rF9bdgkSoaWU4o85ROfL-56" style="edgeStyle=orthogonalEdgeStyle;rounded=0;orthogonalLoop=1;jettySize=auto;html=1;exitX=1;exitY=0.25;exitDx=0;exitDy=0;entryX=0;entryY=0.25;entryDx=0;entryDy=0;dashed=1;dashPattern=1 1;fontSize=14;startArrow=none;startFill=0;endArrow=classic;endFill=1;" edge="1" parent="1" source="rF9bdgkSoaWU4o85ROfL-10">
          <mxGeometry relative="1" as="geometry">
            <mxPoint x="677" y="212.0000000000001" as="sourcePoint" />
            <mxPoint x="730" y="232" as="targetPoint" />
            <Array as="points">
              <mxPoint x="677" y="220" />
              <mxPoint x="710" y="220" />
              <mxPoint x="710" y="232" />
            </Array>
          </mxGeometry>
        </mxCell>
        <mxCell id="rF9bdgkSoaWU4o85ROfL-57" style="edgeStyle=orthogonalEdgeStyle;rounded=0;orthogonalLoop=1;jettySize=auto;html=1;exitX=1;exitY=0.75;exitDx=0;exitDy=0;entryX=0;entryY=0.5;entryDx=0;entryDy=0;dashed=1;dashPattern=1 1;fontSize=14;startArrow=none;startFill=0;endArrow=classic;endFill=1;" edge="1" parent="1">
          <mxGeometry relative="1" as="geometry">
            <mxPoint x="677" y="232" as="sourcePoint" />
            <mxPoint x="730" y="247" as="targetPoint" />
            <Array as="points">
              <mxPoint x="704" y="232" />
              <mxPoint x="704" y="247" />
            </Array>
          </mxGeometry>
        </mxCell>
        <mxCell id="rF9bdgkSoaWU4o85ROfL-10" value="Pluto SDR" style="rounded=1;whiteSpace=wrap;html=1;fontSize=14;fillColor=#dae8fc;strokeColor=#6c8ebf;" vertex="1" parent="1">
          <mxGeometry x="597" y="205" width="80" height="40" as="geometry" />
        </mxCell>
        <mxCell id="rF9bdgkSoaWU4o85ROfL-60" style="edgeStyle=orthogonalEdgeStyle;rounded=0;orthogonalLoop=1;jettySize=auto;html=1;exitX=1;exitY=0.25;exitDx=0;exitDy=0;dashed=1;dashPattern=1 1;fontSize=14;startArrow=none;startFill=0;endArrow=classic;endFill=1;" edge="1" parent="1" source="rF9bdgkSoaWU4o85ROfL-11">
          <mxGeometry relative="1" as="geometry">
            <mxPoint x="730" y="258" as="targetPoint" />
            <Array as="points">
              <mxPoint x="677" y="270" />
              <mxPoint x="704" y="270" />
              <mxPoint x="704" y="258" />
            </Array>
          </mxGeometry>
        </mxCell>
        <mxCell id="rF9bdgkSoaWU4o85ROfL-61" style="edgeStyle=orthogonalEdgeStyle;rounded=0;orthogonalLoop=1;jettySize=auto;html=1;exitX=1;exitY=0.75;exitDx=0;exitDy=0;dashed=1;dashPattern=1 1;fontSize=14;startArrow=none;startFill=0;endArrow=classic;endFill=1;" edge="1" parent="1" source="rF9bdgkSoaWU4o85ROfL-11">
          <mxGeometry relative="1" as="geometry">
            <mxPoint x="730" y="271" as="targetPoint" />
            <Array as="points">
              <mxPoint x="677" y="280" />
              <mxPoint x="710" y="280" />
              <mxPoint x="710" y="271" />
            </Array>
          </mxGeometry>
        </mxCell>
        <mxCell id="rF9bdgkSoaWU4o85ROfL-11" value="Pluto SDR" style="rounded=1;whiteSpace=wrap;html=1;fontSize=14;fillColor=#dae8fc;strokeColor=#6c8ebf;" vertex="1" parent="1">
          <mxGeometry x="597" y="257" width="80" height="40" as="geometry" />
        </mxCell>
        <mxCell id="rF9bdgkSoaWU4o85ROfL-12" value="Pluto SDR" style="rounded=1;whiteSpace=wrap;html=1;fontSize=14;fillColor=#dae8fc;strokeColor=#6c8ebf;" vertex="1" parent="1">
          <mxGeometry x="597" y="310" width="80" height="40" as="geometry" />
        </mxCell>
        <mxCell id="rF9bdgkSoaWU4o85ROfL-13" value="Pluto SDR" style="rounded=1;whiteSpace=wrap;html=1;fontSize=14;fillColor=#dae8fc;strokeColor=#6c8ebf;" vertex="1" parent="1">
          <mxGeometry x="597" y="360" width="80" height="40" as="geometry" />
        </mxCell>
        <mxCell id="rF9bdgkSoaWU4o85ROfL-14" value="Pluto SDR" style="rounded=1;whiteSpace=wrap;html=1;fontSize=14;fillColor=#dae8fc;strokeColor=#6c8ebf;" vertex="1" parent="1">
          <mxGeometry x="597" y="414" width="80" height="40" as="geometry" />
        </mxCell>
        <mxCell id="rF9bdgkSoaWU4o85ROfL-15" value="Pluto SDR" style="rounded=1;whiteSpace=wrap;html=1;fontSize=14;fillColor=#dae8fc;strokeColor=#6c8ebf;" vertex="1" parent="1">
          <mxGeometry x="597" y="464" width="80" height="40" as="geometry" />
        </mxCell>
        <mxCell id="rF9bdgkSoaWU4o85ROfL-93" style="edgeStyle=orthogonalEdgeStyle;rounded=0;orthogonalLoop=1;jettySize=auto;html=1;exitX=1;exitY=0.5;exitDx=0;exitDy=0;entryX=0;entryY=0.25;entryDx=0;entryDy=0;fontSize=14;startArrow=none;startFill=0;endArrow=classic;endFill=1;" edge="1" parent="1" source="rF9bdgkSoaWU4o85ROfL-53" target="rF9bdgkSoaWU4o85ROfL-76">
          <mxGeometry relative="1" as="geometry" />
        </mxCell>
        <mxCell id="rF9bdgkSoaWU4o85ROfL-53" value="Splitter" style="rounded=0;whiteSpace=wrap;html=1;fontSize=14;" vertex="1" parent="1">
          <mxGeometry x="730" y="220" width="80" height="60" as="geometry" />
        </mxCell>
        <mxCell id="rF9bdgkSoaWU4o85ROfL-94" style="edgeStyle=orthogonalEdgeStyle;rounded=0;orthogonalLoop=1;jettySize=auto;html=1;exitX=1;exitY=0.5;exitDx=0;exitDy=0;entryX=0;entryY=0.5;entryDx=0;entryDy=0;fontSize=14;startArrow=none;startFill=0;endArrow=classic;endFill=1;" edge="1" parent="1" source="rF9bdgkSoaWU4o85ROfL-54" target="rF9bdgkSoaWU4o85ROfL-76">
          <mxGeometry relative="1" as="geometry" />
        </mxCell>
        <mxCell id="rF9bdgkSoaWU4o85ROfL-54" value="Splitter" style="rounded=0;whiteSpace=wrap;html=1;fontSize=14;" vertex="1" parent="1">
          <mxGeometry x="730" y="327" width="80" height="60" as="geometry" />
        </mxCell>
        <mxCell id="rF9bdgkSoaWU4o85ROfL-95" style="edgeStyle=orthogonalEdgeStyle;rounded=0;orthogonalLoop=1;jettySize=auto;html=1;exitX=1;exitY=0.5;exitDx=0;exitDy=0;entryX=0;entryY=0.75;entryDx=0;entryDy=0;fontSize=14;startArrow=none;startFill=0;endArrow=classic;endFill=1;" edge="1" parent="1" source="rF9bdgkSoaWU4o85ROfL-55" target="rF9bdgkSoaWU4o85ROfL-76">
          <mxGeometry relative="1" as="geometry" />
        </mxCell>
        <mxCell id="rF9bdgkSoaWU4o85ROfL-55" value="Splitter" style="rounded=0;whiteSpace=wrap;html=1;fontSize=14;" vertex="1" parent="1">
          <mxGeometry x="730" y="430" width="80" height="60" as="geometry" />
        </mxCell>
        <mxCell id="rF9bdgkSoaWU4o85ROfL-68" style="edgeStyle=orthogonalEdgeStyle;rounded=0;orthogonalLoop=1;jettySize=auto;html=1;exitX=1;exitY=0.25;exitDx=0;exitDy=0;entryX=0;entryY=0.25;entryDx=0;entryDy=0;dashed=1;dashPattern=1 1;fontSize=14;startArrow=none;startFill=0;endArrow=classic;endFill=1;" edge="1" parent="1">
          <mxGeometry relative="1" as="geometry">
            <mxPoint x="677" y="319.0000000000001" as="sourcePoint" />
            <mxPoint x="730" y="336" as="targetPoint" />
            <Array as="points">
              <mxPoint x="677" y="324" />
              <mxPoint x="710" y="324" />
              <mxPoint x="710" y="336" />
            </Array>
          </mxGeometry>
        </mxCell>
        <mxCell id="rF9bdgkSoaWU4o85ROfL-69" style="edgeStyle=orthogonalEdgeStyle;rounded=0;orthogonalLoop=1;jettySize=auto;html=1;exitX=1;exitY=0.75;exitDx=0;exitDy=0;entryX=0;entryY=0.5;entryDx=0;entryDy=0;dashed=1;dashPattern=1 1;fontSize=14;startArrow=none;startFill=0;endArrow=classic;endFill=1;" edge="1" parent="1">
          <mxGeometry relative="1" as="geometry">
            <mxPoint x="677" y="336" as="sourcePoint" />
            <mxPoint x="730" y="351" as="targetPoint" />
            <Array as="points">
              <mxPoint x="704" y="336" />
              <mxPoint x="704" y="351" />
            </Array>
          </mxGeometry>
        </mxCell>
        <mxCell id="rF9bdgkSoaWU4o85ROfL-70" style="edgeStyle=orthogonalEdgeStyle;rounded=0;orthogonalLoop=1;jettySize=auto;html=1;exitX=1;exitY=0.25;exitDx=0;exitDy=0;dashed=1;dashPattern=1 1;fontSize=14;startArrow=none;startFill=0;endArrow=classic;endFill=1;" edge="1" parent="1">
          <mxGeometry relative="1" as="geometry">
            <mxPoint x="677" y="371" as="sourcePoint" />
            <mxPoint x="730" y="362" as="targetPoint" />
            <Array as="points">
              <mxPoint x="677" y="374" />
              <mxPoint x="704" y="374" />
              <mxPoint x="704" y="362" />
            </Array>
          </mxGeometry>
        </mxCell>
        <mxCell id="rF9bdgkSoaWU4o85ROfL-71" style="edgeStyle=orthogonalEdgeStyle;rounded=0;orthogonalLoop=1;jettySize=auto;html=1;exitX=1;exitY=0.75;exitDx=0;exitDy=0;dashed=1;dashPattern=1 1;fontSize=14;startArrow=none;startFill=0;endArrow=classic;endFill=1;" edge="1" parent="1">
          <mxGeometry relative="1" as="geometry">
            <mxPoint x="677" y="391" as="sourcePoint" />
            <mxPoint x="730" y="375" as="targetPoint" />
            <Array as="points">
              <mxPoint x="677" y="384" />
              <mxPoint x="710" y="384" />
              <mxPoint x="710" y="375" />
            </Array>
          </mxGeometry>
        </mxCell>
        <mxCell id="rF9bdgkSoaWU4o85ROfL-72" style="edgeStyle=orthogonalEdgeStyle;rounded=0;orthogonalLoop=1;jettySize=auto;html=1;exitX=1;exitY=0.25;exitDx=0;exitDy=0;entryX=0;entryY=0.25;entryDx=0;entryDy=0;dashed=1;dashPattern=1 1;fontSize=14;startArrow=none;startFill=0;endArrow=classic;endFill=1;" edge="1" parent="1">
          <mxGeometry relative="1" as="geometry">
            <mxPoint x="677" y="424.0000000000001" as="sourcePoint" />
            <mxPoint x="730" y="441" as="targetPoint" />
            <Array as="points">
              <mxPoint x="677" y="429" />
              <mxPoint x="710" y="429" />
              <mxPoint x="710" y="441" />
            </Array>
          </mxGeometry>
        </mxCell>
        <mxCell id="rF9bdgkSoaWU4o85ROfL-73" style="edgeStyle=orthogonalEdgeStyle;rounded=0;orthogonalLoop=1;jettySize=auto;html=1;exitX=1;exitY=0.75;exitDx=0;exitDy=0;entryX=0;entryY=0.5;entryDx=0;entryDy=0;dashed=1;dashPattern=1 1;fontSize=14;startArrow=none;startFill=0;endArrow=classic;endFill=1;" edge="1" parent="1">
          <mxGeometry relative="1" as="geometry">
            <mxPoint x="677" y="441" as="sourcePoint" />
            <mxPoint x="730" y="456" as="targetPoint" />
            <Array as="points">
              <mxPoint x="704" y="441" />
              <mxPoint x="704" y="456" />
            </Array>
          </mxGeometry>
        </mxCell>
        <mxCell id="rF9bdgkSoaWU4o85ROfL-74" style="edgeStyle=orthogonalEdgeStyle;rounded=0;orthogonalLoop=1;jettySize=auto;html=1;exitX=1;exitY=0.25;exitDx=0;exitDy=0;dashed=1;dashPattern=1 1;fontSize=14;startArrow=none;startFill=0;endArrow=classic;endFill=1;" edge="1" parent="1">
          <mxGeometry relative="1" as="geometry">
            <mxPoint x="677" y="476" as="sourcePoint" />
            <mxPoint x="730" y="467" as="targetPoint" />
            <Array as="points">
              <mxPoint x="677" y="479" />
              <mxPoint x="704" y="479" />
              <mxPoint x="704" y="467" />
            </Array>
          </mxGeometry>
        </mxCell>
        <mxCell id="rF9bdgkSoaWU4o85ROfL-75" style="edgeStyle=orthogonalEdgeStyle;rounded=0;orthogonalLoop=1;jettySize=auto;html=1;exitX=1;exitY=0.75;exitDx=0;exitDy=0;dashed=1;dashPattern=1 1;fontSize=14;startArrow=none;startFill=0;endArrow=classic;endFill=1;" edge="1" parent="1">
          <mxGeometry relative="1" as="geometry">
            <mxPoint x="677" y="496" as="sourcePoint" />
            <mxPoint x="730" y="480" as="targetPoint" />
            <Array as="points">
              <mxPoint x="677" y="489" />
              <mxPoint x="710" y="489" />
              <mxPoint x="710" y="480" />
            </Array>
          </mxGeometry>
        </mxCell>
        <mxCell id="rF9bdgkSoaWU4o85ROfL-76" value="USRP X310" style="whiteSpace=wrap;html=1;shadow=1;fontSize=18;fillColor=#bac8d3;strokeColor=#23445d;" vertex="1" parent="1">
          <mxGeometry x="900" y="333.5" width="120" height="47" as="geometry" />
        </mxCell>
        <mxCell id="rF9bdgkSoaWU4o85ROfL-96" style="edgeStyle=orthogonalEdgeStyle;rounded=0;orthogonalLoop=1;jettySize=auto;html=1;exitX=1;exitY=0.5;exitDx=0;exitDy=0;entryX=0.5;entryY=0;entryDx=0;entryDy=0;fontSize=14;startArrow=classicThin;startFill=1;endArrow=classic;endFill=1;" edge="1" parent="1" source="rF9bdgkSoaWU4o85ROfL-77" target="rF9bdgkSoaWU4o85ROfL-76">
          <mxGeometry relative="1" as="geometry" />
        </mxCell>
        <mxCell id="rF9bdgkSoaWU4o85ROfL-77" value="HOST&lt;br&gt;PC" style="rhombus;whiteSpace=wrap;html=1;fontSize=14;" vertex="1" parent="1">
          <mxGeometry x="588.5" y="100" width="95" height="60" as="geometry" />
        </mxCell>
        <mxCell id="rF9bdgkSoaWU4o85ROfL-92" value="" style="endArrow=classic;startArrow=classic;html=1;rounded=0;fontSize=14;entryX=0.5;entryY=1;entryDx=0;entryDy=0;" edge="1" parent="1" source="rF9bdgkSoaWU4o85ROfL-89" target="rF9bdgkSoaWU4o85ROfL-77">
          <mxGeometry width="50" height="50" relative="1" as="geometry">
            <mxPoint x="680" y="460" as="sourcePoint" />
            <mxPoint x="730" y="410" as="targetPoint" />
          </mxGeometry>
        </mxCell>
      </root>
    </mxGraphModel>
  </diagram>
</mxfile>
